#!OML:ASF F:\VICON\USERDATA\INSTALL\rory3\rory3.ASF
:FULLY-SPECIFIED
:DEGREES
325
root 0.571771 17.9211 25.5773 -4.07966 3.53705 1.85927
lowerback 14.8314 -1.50953 -4.29629
upperback -1.00645 -2.57448 2.19056
thorax -9.14514 -0.964967 5.38551
lowerneck -10.4564 0.196775 -1.44187
upperneck 30.2721 1.37507 -2.55587
head 11.5963 0.139968 -0.520065
rclavicle 3.01594e-014 -2.78299e-014
rhumerus -40.2572 -17.9453 -72.7775
rradius 22.0846
rwrist 10.5573
rhand -12.61 9.92893
rfingers 7.12502
rthumb 13.4691 -19.6156
lclavicle 3.01594e-014 -2.78299e-014
lhumerus -36.2241 1.64585 84.8457
lradius 41.0829
lwrist 6.58121
lhand -14.9302 50.2128
lfingers 7.12502
lthumb 11.232 79.8921
rfemur -23.6435 4.2793 19.5827
rtibia 22.5146
rfoot 1.14456 -16.021
rtoes 18.2293
lfemur 20.4483 -7.99115 -28.0732
ltibia 18.5259
lfoot -7.73523 -0.215671
ltoes -24.7978
326
root 0.557921 17.944 25.7472 -4.09259 3.10648 1.67427
lowerback 14.9294 -1.41809 -4.1357
upperback -0.996716 -2.42116 2.25523
thorax -9.21253 -0.894768 5.33635
lowerneck -10.8154 0.241781 -1.66698
upperneck 30.6801 1.4477 -2.33307
head 11.8294 0.165179 -0.391375
rclavicle 1.50331e-014 3.97569e-015
rhumerus -40.16 -17.8772 -72.7248
rradius 21.9751
rwrist 10.4028
rhand -12.6458 9.74605
rfingers 7.12502
rthumb 13.4346 -19.8007
lclavicle 1.50331e-014 3.97569e-015
lhumerus -36.5525 2.29205 84.7272
lradius 41.0228
lwrist 6.24433
lhand -14.6167 51.2768
lfingers 7.12502
lthumb 11.5344 80.9395
rfemur -23.4771 3.78721 20.1544
rtibia 23.2822
rfoot 0.87086 -14.4916
rtoes 17.3453
lfemur 19.7821 -8.17896 -27.9884
ltibia 20.438
lfoot -6.42738 -0.393271
ltoes -24.5624
327
root 0.543276 17.9632 25.9381 -4.34149 2.79117 1.41011
lowerback 15.0438 -1.37308 -3.84889
upperback -0.952119 -2.30777 2.30686
thorax -9.25071 -0.852325 5.20833
lowerneck -10.611 0.356857 -1.32108
upperneck 30.5719 1.62559 -2.66546
head 11.7509 0.247012 -0.55177
rclavicle 1.8077e-015 -8.74653e-015
rhumerus -40.2618 -17.9551 -72.5601
rradius 22.0121
rwrist 10.4595
rhand -12.5114 9.33225
rfingers 7.12502
rthumb 13.5641 -20.2059
lclavicle 1.8077e-015 -8.74653e-015
lhumerus -37.0092 2.82439 84.655
lradius 40.8917
lwrist 6.40975
lhand -15.1348 51.075
lfingers 7.12502
lthumb 11.0347 80.765
rfemur -22.9211 3.06175 20.7985
rtibia 24.117
rfoot 0.0110936 -12.9164
rtoes 17.3608
lfemur 19.4064 -8.30692 -27.8334
ltibia 22.5013
lfoot -5.10914 -0.590159
ltoes -26.0159
328
root 0.512012 17.9715 26.094 -4.44924 2.18511 0.685672
lowerback 15.4223 -1.22479 -3.2735
upperback -1.0762 -1.99464 2.52177
thorax -9.65107 -0.708188 5.06855
lowerneck -10.5231 0.319019 -1.36445
upperneck 30.671 1.57702 -2.65238
head 11.7713 0.220775 -0.546622
rclavicle 6.23997e-015 1.11319e-014
rhumerus -40.5665 -18.0128 -72.3482
rradius 22.1894
rwrist 10.422
rhand -12.4624 9.21498
rfingers 7.12502
rthumb 13.6113 -20.32
lclavicle 6.23997e-015 1.11319e-014
lhumerus -37.6446 3.22593 84.5974
lradius 40.9089
lwrist 6.20416
lhand -14.0757 51.8728
lfingers 7.12502
lthumb 12.0561 81.5055
rfemur -22.6876 3.3624 21.8919
rtibia 24.8719
rfoot -0.746346 -12.3287
rtoes 17.4438
lfemur 18.5357 -8.14502 -26.9363
ltibia 24.7728
lfoot -3.42563 -0.989734
ltoes -27.1152
329
root 0.490222 17.9914 26.2633 -4.4947 1.75774 0.867044
lowerback 15.4906 -1.0449 -3.5566
upperback -0.769747 -1.80869 2.52013
thorax -9.36451 -0.619727 5.17841
lowerneck -11.7515 0.322196 -1.45503
upperneck 30.932 1.642 -2.62833
head 12.1315 0.227836 -0.51403
rclavicle -4.66274e-014 2.62396e-014
rhumerus -39.7813 -18.2965 -72.3886
rradius 22.0548
rwrist 10.2099
rhand -12.4053 9.16531
rfingers 7.12502
rthumb 13.6664 -20.366
lclavicle -4.66274e-014 2.62396e-014
lhumerus -37.4791 3.69104 84.6684
lradius 40.8733
lwrist 6.01039
lhand -13.2496 52.3403
lfingers 7.12502
lthumb 12.8526 81.9246
rfemur -22.4014 3.24525 21.948
rtibia 25.5564
rfoot -1.18948 -11.5415
rtoes 16.8397
lfemur 17.5321 -7.94682 -27.0277
ltibia 27.0236
lfoot -1.2781 -1.42393
ltoes -25.6436
330
root 0.475066 18.0133 26.4291 -4.47419 1.43559 0.986087
lowerback 15.6323 -0.963366 -3.59288
upperback -1.00541 -1.72322 2.40165
thorax -9.71809 -0.563785 5.06479
lowerneck -10.9187 0.43637 -1.18288
upperneck 30.6932 1.75005 -2.76095
head 11.866 0.30202 -0.595831
rclavicle 7.77124e-015 -2.62396e-014
rhumerus -40.1147 -18.3536 -72.2124
rradius 21.9208
rwrist 10.1156
rhand -12.575 9.3935
rfingers 7.12502
rthumb 13.5028 -20.1487
lclavicle 7.77124e-015 -2.62396e-014
lhumerus -38.4099 3.67045 84.5982
lradius 40.851
lwrist 6.26867
lhand -13.2489 51.8714
lfingers 7.12502
lthumb 12.8532 81.4556
rfemur -22.1519 2.93501 22.0457
rtibia 26.1147
rfoot -1.43069 -10.6563
rtoes 16.351
lfemur 16.3168 -7.72177 -26.9751
ltibia 29.3042
lfoot 1.18738 -1.85488
ltoes -23.0735
331
root 0.457995 18.0325 26.5939 -4.42532 1.14781 0.718522
lowerback 15.6491 -0.914133 -3.31272
upperback -1.01493 -1.59771 2.47738
thorax -9.75707 -0.514593 4.95937
lowerneck -10.8182 0.475165 -1.11882
upperneck 30.4726 1.80007 -2.82315
head 11.7591 0.328407 -0.621933
rclavicle -1.98412e-014 2.46493e-014
rhumerus -40.0175 -18.0529 -72.3212
rradius 22.1345
rwrist 9.74738
rhand -12.7589 9.7882
rfingers 7.12502
rthumb 13.3256 -19.7657
lclavicle -1.98412e-014 2.46493e-014
lhumerus -38.7598 3.74574 84.7163
lradius 40.7719
lwrist 6.53907
lhand -13.3194 51.6213
lfingers 7.12502
lthumb 12.7853 81.2098
rfemur -21.9685 2.72793 22.5356
rtibia 26.7098
rfoot -1.90191 -9.98207
rtoes 17.6861
lfemur 15.1364 -7.41592 -26.3883
ltibia 31.2994
lfoot 3.96168 -2.26378
ltoes -20.822
332
root 0.441378 18.0492 26.7744 -4.50504 1.03787 0.620391
lowerback 15.5014 -0.931426 -3.20441
upperback -0.866064 -1.59438 2.50188
thorax -9.5103 -0.528587 4.9118
lowerneck -10.9052 0.504183 -1.23823
upperneck 30.3215 1.82549 -2.68714
head 11.7149 0.344348 -0.545857
rclavicle 2.40964e-014 -5.56597e-015
rhumerus -39.7397 -17.6291 -72.6159
rradius 22.4838
rwrist 9.36113
rhand -12.7037 9.88836
rfingers 7.12502
rthumb 13.3788 -19.6621
lclavicle 2.40964e-014 -5.56597e-015
lhumerus -39.1079 3.74218 84.8601
lradius 40.966
lwrist 6.83149
lhand -12.9792 51.9727
lfingers 7.12502
lthumb 13.1132 81.5405
rfemur -21.4143 2.45079 22.8153
rtibia 27.0364
rfoot -2.16628 -9.39853
rtoes 18.7966
lfemur 14.0205 -7.1758 -26.0005
ltibia 33.4688
lfoot 7.10493 -2.82541
ltoes -18.5668
333
root 0.429812 18.0645 26.9628 -4.71103 1.07078 0.765089
lowerback 15.3054 -0.975203 -3.23365
upperback -0.673079 -1.66135 2.41652
thorax -9.18034 -0.575739 4.83519
lowerneck -10.7407 0.565148 -1.29785
upperneck 30.0419 1.88334 -2.58701
head 11.5697 0.38182 -0.489255
rclavicle -3.53464e-014 -1.03368e-014
rhumerus -39.4493 -17.2176 -72.9482
rradius 22.7387
rwrist 8.87864
rhand -12.5951 9.80288
rfingers 7.12502
rthumb 13.4835 -19.7406
lclavicle -3.53464e-014 -1.03368e-014
lhumerus -39.5049 3.5762 85.0398
lradius 41.1611
lwrist 6.86523
lhand -12.4386 52.3906
lfingers 7.12502
lthumb 13.6344 81.9241
rfemur -20.6743 1.89425 22.811
rtibia 27.4068
rfoot -2.46473 -8.6353
rtoes 19.419
lfemur 13.0919 -7.04998 -25.9626
ltibia 35.5382
lfoot 10.1967 -3.23781
ltoes -16.6021
334
root 0.403197 18.0842 27.0963 -4.58318 0.724555 -0.0221287
lowerback 15.619 -0.930122 -2.55253
upperback -0.804352 -1.45837 2.65394
thorax -9.53496 -0.492151 4.67627
lowerneck -10.736 0.511322 -1.45127
upperneck 29.9425 1.82139 -2.53245
head 11.5276 0.344709 -0.449861
rclavicle 3.91357e-015 -2.22639e-014
rhumerus -39.246 -16.7962 -73.1341
rradius 22.795
rwrist 8.52047
rhand -12.5596 10.0674
rfingers 7.12502
rthumb 13.5177 -19.4739
lclavicle 3.91357e-015 -2.22639e-014
lhumerus -39.9855 3.22956 85.3337
lradius 41.2338
lwrist 6.87012
lhand -12.2557 52.4254
lfingers 7.12502
lthumb 13.8106 81.9469
rfemur -20.4899 2.50224 23.8648
rtibia 27.6741
rfoot -2.72504 -8.80038
rtoes 19.9289
lfemur 11.3601 -6.65503 -24.6237
ltibia 37.7936
lfoot 12.841 -3.82855
ltoes -15.8275
335
root 0.386885 18.1009 27.2661 -4.63528 0.828781 0.17995
lowerback 15.6515 -0.937565 -2.70537
upperback -0.754412 -1.50642 2.56189
thorax -9.49241 -0.512133 4.67371
lowerneck -10.8718 0.480663 -1.34547
upperneck 29.8447 1.74997 -2.52281
head 11.5167 0.325819 -0.472914
rclavicle 3.24267e-015 4.77083e-015
rhumerus -38.9366 -16.1951 -73.5178
rradius 22.9814
rwrist 7.99236
rhand -12.713 10.1089
rfingers 7.12502
rthumb 13.3699 -19.4422
lclavicle 3.24267e-015 4.77083e-015
lhumerus -40.297 2.75604 85.6307
lradius 41.2346
lwrist 6.87831
lhand -12.1686 52.0909
lfingers 7.12502
lthumb 13.8945 81.6067
rfemur -19.9204 2.27286 23.7727
rtibia 27.8779
rfoot -3.04967 -8.57408
rtoes 19.7081
lfemur 10.0121 -6.57698 -24.5903
ltibia 40.0372
lfoot 14.9687 -4.40407
ltoes -15.6465
336
root 0.36999 18.1159 27.4241 -4.68721 0.75124 -0.163694
lowerback 15.6908 -0.973137 -2.34014
upperback -0.615314 -1.48024 2.62665
thorax -9.3711 -0.521379 4.52608
lowerneck -11.2844 0.521147 -1.45879
upperneck 29.9008 1.7929 -2.33645
head 11.6203 0.350987 -0.378038
rclavicle -1.51822e-014 2.06736e-014
rhumerus -38.4958 -15.3353 -74.1477
rradius 23.5602
rwrist 7.29457
rhand -12.6756 9.80196
rfingers 7.12502
rthumb 13.4059 -19.7467
lclavicle -1.51822e-014 2.06736e-014
lhumerus -40.3728 2.45749 85.8825
lradius 41.2348
lwrist 6.78321
lhand -12.048 51.7546
lfingers 7.12502
lthumb 14.0108 81.2624
rfemur -19.2657 2.47232 24.2945
rtibia 27.8335
rfoot -3.2739 -8.68148
rtoes 19.5862
lfemur 8.52884 -6.39301 -23.9056
ltibia 42.4709
lfoot 16.782 -4.98592
ltoes -14.4649
